<?xml version="1.0" encoding="utf-8"?>
<!-- Generator: Adobe Illustrator 20.0.0, SVG Export Plug-In . SVG Version: 6.00 Build 0)  -->
<svg version="1.1" id="Layer_1" xmlns="http://www.w3.org/2000/svg" xmlns:xlink="http://www.w3.org/1999/xlink" x="0px" y="0px"
	 viewBox="0 0 238.7 18.6" style="enable-background:new 0 0 238.7 18.6;" xml:space="preserve">
<style type="text/css">
	.st0{fill:#FFFFFF;}
</style>
<g>
	<path class="st0" d="M3.7,9.5c0,3.4,2.6,6.1,6,6.1c1.6,0,2.9-0.6,3.9-1.4v-3.8H9.2v-3h7.9v7.9c-1.6,2-4.2,3.4-7.4,3.4
		c-5.5,0-9.3-4-9.3-9.1s3.8-9.1,9.3-9.1c2.6,0,4.9,1,6.4,2.5l-2.2,2.3c-1.1-1.1-2.5-1.8-4.3-1.8C6.3,3.5,3.7,6.2,3.7,9.5 M34.8,11.4
		h4.5L37,6.2L34.8,11.4z M28.3,18.4l7.5-17.7h2.4l7.5,17.7h-3.5l-1.7-3.9h-7.1l-1.7,3.9H28.3z M64,7.5c1,0,1.4-0.2,1.7-0.5
		c0.3-0.3,0.5-0.8,0.5-1.3c0-0.5-0.2-1-0.5-1.4C65.5,3.9,65,3.7,64,3.7h-2.8v3.8H64z M61.2,10.5v7.9h-3.4V0.7h6.4
		c1.8,0,3,0.5,3.8,1.3c1,0.9,1.6,2.2,1.6,3.6c0,1.4-0.6,2.7-1.6,3.6c-0.5,0.5-1.1,0.8-1.8,1l6.6,8.1h-4.2l-6.3-7.9H61.2z"/>
	<polygon class="st0" points="93.6,11.3 100,0.7 102.4,0.7 102.4,18.4 99,18.4 99,8.5 94.7,15.5 92.4,15.5 88.1,8.5 88.1,18.4 
		84.8,18.4 84.8,0.7 87.1,0.7 	"/>
	<polygon class="st0" points="119.8,3.7 119.8,7.4 125.3,7.4 125.3,10.4 119.8,10.4 119.8,15.4 127.3,15.4 127.3,18.4 116.5,18.4 
		116.5,0.7 127,0.7 127,3.7 	"/>
	<polygon class="st0" points="140.4,0.7 142.7,0.7 152.6,12.2 152.6,0.7 155.9,0.7 155.9,18.4 153.6,18.4 143.7,6.8 143.7,18.4 
		140.4,18.4 	"/>
	<polygon class="st0" points="181.4,0.7 181.4,3.7 176.7,3.7 176.7,18.4 173.3,18.4 173.3,3.7 168.7,3.7 168.7,0.7 	"/>
	<path class="st0" d="M201.6,15.6c3.3,0,5.8-2.7,5.8-6.1s-2.5-6.1-5.8-6.1c-3.3,0-5.8,2.7-5.8,6.1S198.3,15.6,201.6,15.6 M201.6,0.4
		c5.4,0,9.2,4.1,9.2,9.1s-3.7,9.1-9.2,9.1c-5.4,0-9.2-4.1-9.2-9.1S196.2,0.4,201.6,0.4 M229.8,7.5c1,0,1.4-0.2,1.7-0.5
		c0.3-0.3,0.5-0.8,0.5-1.3c0-0.5-0.2-1-0.5-1.4c-0.3-0.3-0.7-0.6-1.7-0.6H227v3.8H229.8z M227,10.5v7.9h-3.4V0.7h6.4
		c1.8,0,3,0.5,3.8,1.3c1,0.9,1.6,2.2,1.6,3.6c0,1.4-0.6,2.7-1.6,3.6c-0.5,0.5-1.1,0.8-1.8,1l6.6,8.1h-4.2l-6.3-7.9H227z"/>
</g>
</svg>
