<?xml version="1.0" encoding="utf-8"?>
<!-- Generator: Adobe Illustrator 20.0.0, SVG Export Plug-In . SVG Version: 6.00 Build 0)  -->
<svg version="1.1" id="Layer_1" xmlns="http://www.w3.org/2000/svg" xmlns:xlink="http://www.w3.org/1999/xlink" x="0px" y="0px"
	 viewBox="0 0 48 48" style="enable-background:new 0 0 48 48;" xml:space="preserve">
<style type="text/css">
	.st0{fill:#FFFFFF;}
	.st1{fill:none;}
</style>
<g>
	<path class="st0" d="M13,19.5L12.5,20h23L35,19.5v9l0.5-0.5h-23l0.5,0.5V19.5z M12,29h0.5h23H36v-0.5v-9V19h-0.5h-23H12v0.5v9V29z"
		/>
	<polygon class="st0" points="24,28.5 25,28.5 25,25.5 24,25.5 	"/>
	<polygon class="st0" points="20,28.5 21,28.5 21,25.5 20,25.5 	"/>
	<polygon class="st0" points="16,28.5 17,28.5 17,25.5 16,25.5 	"/>
	<polygon class="st0" points="28,28.5 29,28.5 29,25.5 28,25.5 	"/>
	<path class="st0" d="M31.9,22.4c0.3,0,0.5,0.2,0.5,0.5s-0.2,0.5-0.5,0.5c-0.3,0-0.5-0.2-0.5-0.5S31.6,22.4,31.9,22.4z M31.9,24.4
		c0.8,0,1.5-0.7,1.5-1.5s-0.7-1.5-1.5-1.5c-0.8,0-1.5,0.7-1.5,1.5S31,24.4,31.9,24.4z"/>
	<rect y="0" class="st1" width="48" height="48"/>
</g>
</svg>
