<?xml version="1.0" encoding="UTF-8" standalone="no"?>
<svg width="36px" height="36px" viewBox="0 0 36 36" version="1.1" xmlns="http://www.w3.org/2000/svg" xmlns:xlink="http://www.w3.org/1999/xlink">
    <!-- Generator: Sketch 3.8.3 (29802) - http://www.bohemiancoding.com/sketch -->
    <title>ic_clock_white</title>
    <desc>Created with Sketch.</desc>
    <defs></defs>
    <g id="Symbols" stroke="none" stroke-width="1" fill="none" fill-rule="evenodd">
        <g id="time_stamp" transform="translate(-266.000000, -9.000000)" fill="#FFFFFF">
            <g id="time" transform="translate(97.000000, 0.000000)">
                <g id="ic_clock_white" transform="translate(169.000000, 9.000000)">
                    <path d="M34.0002,18 C34.0002,26.8357153 26.8359153,34 18.0002,34 C9.16448475,34 2.0002,26.8357153 2.0002,18 C2.0002,9.16428475 9.16448475,2 18.0002,2 C26.8359153,2 34.0002,9.16428475 34.0002,18 L34.0002,18 Z M36.0002,18 C36.0002,8.05971525 27.9404847,0 18.0002,0 C8.05991525,0 0.0002,8.05971525 0.0002,18 C0.0002,27.9402847 8.05991525,36 18.0002,36 C27.9404847,36 36.0002,27.9402847 36.0002,18 L36.0002,18 Z" id="Stroke-1"></path>
                    <path d="M17.0002,8 L17.0002,18.416 C17.0002,18.6812165 17.1055568,18.9355704 17.2930932,19.1231068 L24.6590932,26.4891068 C25.0496175,26.8796311 25.6827825,26.8796311 26.0733068,26.4891068 C26.4638311,26.0985825 26.4638311,25.4654175 26.0733068,25.0748932 L18.7073068,17.7088932 L19.0002,18.416 L19.0002,8 C19.0002,7.44771525 18.5524847,7 18.0002,7 C17.4479153,7 17.0002,7.44771525 17.0002,8 L17.0002,8 Z" id="Stroke-3"></path>
                </g>
            </g>
        </g>
    </g>
</svg>