<?xml version="1.0" encoding="UTF-8" standalone="no"?>
<svg width="139px" height="69px" viewBox="0 0 139 69" version="1.1" xmlns="http://www.w3.org/2000/svg" xmlns:xlink="http://www.w3.org/1999/xlink">
    <!-- Generator: Sketch 3.8.3 (29802) - http://www.bohemiancoding.com/sketch -->
    <title>yelp_logo</title>
    <desc>Created with Sketch.</desc>
    <defs></defs>
    <g id="Symbols" stroke="none" stroke-width="1" fill="none" fill-rule="evenodd">
        <g id="yelp_logo" fill="#FFFFFF">
            <g id="Page-1" transform="translate(0.000000, 1.000000)">
                <path d="M136.127,37.6785 C135.24,37.0075 135.098,36.9055 129.768,35.1525 C134.383,34.0185 134.58,33.8955 135.398,33.3605 C137.249,32.1035 138.238,30.0225 138.096,27.7675 L138.078,27.5215 C137.699,23.9025 133.034,17.0715 129.898,15.5375 C127.828,14.5495 125.524,14.6895 123.711,15.9055 C122.857,16.4715 122.746,16.5485 119.239,21.3375 C118.898,15.7415 118.238,5.8795 118.08,4.9585 L118.043,4.7485 L117.99,4.5415 C117.391,2.3755 115.693,0.7475 113.44,0.1845 C109.687,-0.7525 99.752,2.0485 97.084,4.7975 C95.52,6.4305 94.919,8.6265 95.457,10.6915 L95.566,11.0985 L95.75,11.4805 C96.006,12.0075 96.682,13.1215 102.447,22.1675 L104.57,25.5145 C99.411,23.4005 99.206,23.3935 98.135,23.3875 C96.1,23.2955 94.06,24.3855 92.836,26.3105 L92.811,26.3445 C92.178,27.3655 91.787,28.7555 91.539,30.2065 C89.88,27.9645 87.375,26.1675 83.578,25.4225 C80.891,24.8825 78.364,25.2075 75.989,26.1705 C73.809,24.7805 70.814,24.6195 68.314,26.0475 C67.541,26.4875 66.965,27.0115 66.506,27.5705 L66.506,24.4985 L66.269,22.6765 L66.198,22.3455 C65.695,20.3645 64.2,18.6955 62.197,17.8765 L62.18,17.8645 C59.986,16.9815 57.525,17.1915 55.436,18.4425 C53.208,19.7585 52.067,21.9415 52.067,24.9235 L52.067,31.1845 C51.273,29.9535 50.294,28.8805 49.133,28.0005 C46.009,25.6305 41.818,24.8315 37.023,25.6915 C34.24,26.1755 31.914,27.3935 30.071,29.1725 C30.041,29.1145 30.014,29.0445 29.981,28.9885 C29.047,27.3095 27.528,26.1605 25.582,25.6505 C22.334,24.7575 18.21,25.8635 16.508,31.6685 C16.508,31.6685 16.231,32.6105 15.854,33.8955 C15.108,32.5255 13.178,28.7915 13.098,28.6815 C11.356,26.0415 7.873,24.9005 4.758,26.1395 C1.744,27.2705 0,29.9225 0,33.0355 C0,34.0185 0.17,35.0395 0.531,36.0785 L0.62,36.3345 C0.62,36.3345 6.805,48.9325 8.594,52.5805 C5.721,53.3385 3.668,55.4865 3.334,58.4275 C3.303,58.7115 3.283,58.9905 3.283,59.2685 C3.283,61.1425 4.062,62.9315 5.486,64.2425 C7.65,66.2415 11.014,66.8995 14.959,66.0935 C19.25,65.2485 21.717,62.6625 23.447,57.1805 L26.076,48.9125 C26.936,52.3935 28.492,54.6695 29.969,56.1235 C32.098,58.2295 35.992,60.5545 42.434,59.6835 C47.224,59.0155 50.538,56.8675 52.326,54.3515 L52.441,54.9585 C52.955,56.7555 54.341,58.3525 56.204,59.2045 C58.15,60.1035 60.407,60.0885 62.385,59.1615 C63.417,58.7135 64.293,58.0025 64.973,57.1185 L64.973,59.7245 C64.973,64.0325 67.463,65.8655 68.949,66.5745 C70.889,67.5475 73.207,67.6265 75.231,66.7505 C77.139,65.9245 78.557,64.3495 79.114,62.4355 L79.197,62.1455 L79.455,60.3645 L79.455,59.6015 C82.045,59.8655 84.75,59.4455 87.133,58.2115 C88.182,57.6645 89.105,57.0095 89.928,56.2515 L91.678,56.2515 C92.631,56.7525 93.712,57.0625 94.874,57.0625 C96.04,57.0625 97.123,56.7525 98.076,56.2515 L103.145,56.2515 C106.505,58.1425 111.418,59.5735 114.047,59.1255 C116.313,58.7215 118.093,57.2645 118.848,55.2205 L118.887,55.1175 C119.207,54.1885 119.26,54.0165 119.283,48.7645 C122.162,53.4175 122.313,53.5405 123.12,54.1775 C124.856,55.5325 127.145,55.8315 129.25,54.9845 C132.639,53.6225 137.817,47.0445 138.333,43.4325 C138.378,43.1175 138.4,42.7985 138.4,42.4875 C138.4,40.5965 137.586,38.8455 136.127,37.6785 Z M96.5255,28.6608 C95.7035,29.9728 95.3595,34.1128 95.6425,36.8618 C95.7425,37.7678 95.9065,38.5228 96.1465,38.9768 C96.4725,39.6008 97.0255,39.9718 97.6545,39.9928 C98.0565,40.0158 98.3075,39.9468 105.8865,37.5098 C105.8865,37.5098 109.2565,36.4338 109.2735,36.4268 C110.1105,36.2148 110.6775,35.4418 110.7325,34.4528 C110.7875,33.4418 110.2615,32.5488 109.4015,32.2268 L107.0235,31.2588 C98.8765,27.8978 98.5115,27.7648 98.0995,27.7598 C97.4725,27.7368 96.9125,28.0538 96.5255,28.6608 Z M114.7481,53.6966 C114.8811,53.3156 114.8961,53.0516 114.9171,45.0866 C114.9171,45.0866 114.9371,41.5686 114.9411,41.5326 C114.9941,40.6706 114.4371,39.8876 113.5211,39.5336 C112.5801,39.1706 111.5681,39.3956 110.9981,40.1026 C110.9981,40.1026 109.3381,42.0756 109.3321,42.0756 C103.6211,48.7796 103.3861,49.0896 103.2481,49.4866 C103.1611,49.7216 103.1271,49.9696 103.1561,50.2156 C103.1901,50.5736 103.3511,50.9246 103.6191,51.2496 C104.9391,52.8266 111.2881,55.1586 113.3141,54.8156 C114.0211,54.6846 114.5291,54.2906 114.7481,53.6966 Z M127.6192,50.9241 C129.5342,50.1641 133.7112,44.8511 134.0022,42.8081 C134.1042,42.0961 133.8832,41.4851 133.3922,41.0931 C133.0702,40.8521 132.8242,40.7571 125.2502,38.2721 C125.2502,38.2721 121.9242,37.1741 121.8852,37.1511 C121.0822,36.8411 120.1642,37.1281 119.5442,37.8941 C118.9042,38.6741 118.8062,39.7031 119.3172,40.4841 L120.6542,42.6591 C125.1522,49.9671 125.4962,50.4821 125.8212,50.7351 C126.3222,51.1271 126.9592,51.1931 127.6192,50.9241 Z M123.7091,32.1213 C132.3181,30.0353 132.6501,29.9253 132.9911,29.7053 C133.5141,29.3513 133.7741,28.7653 133.7291,28.0483 C133.7291,28.0233 133.7341,28.0003 133.7291,27.9743 C133.5081,25.8633 129.8031,20.3603 127.9791,19.4693 C127.3321,19.1593 126.6831,19.1823 126.1481,19.5403 C125.8131,19.7583 125.5721,20.0833 120.9631,26.3883 C120.9631,26.3883 118.8771,29.2263 118.8521,29.2543 C118.3041,29.9223 118.2981,30.8793 118.8301,31.6963 C119.3871,32.5483 120.3261,32.9633 121.1891,32.7253 C121.1891,32.7253 121.1521,32.7843 121.1431,32.7973 C121.5671,32.6363 122.3281,32.4493 123.7091,32.1213 Z M115.0626,25.0129 C114.9146,21.6009 113.8906,6.4069 113.7676,5.7029 C113.5916,5.0629 113.0976,4.6099 112.3786,4.4279 C110.1836,3.8829 101.7836,6.2389 100.2246,7.8429 C99.7246,8.3649 99.5396,9.0079 99.6916,9.5759 C99.9336,10.0799 110.3446,26.4539 110.3446,26.4539 C111.8826,28.9499 113.1386,28.5659 113.5486,28.4329 C113.9576,28.3099 115.2046,27.9209 115.0626,25.0129 Z M8.4512,61.0276 C9.5342,62.0336 11.5882,62.3156 14.0852,61.8086 C16.4262,61.3446 17.8752,60.3006 19.2752,55.8626 L26.2262,34.0106 C26.5882,32.8506 26.5582,31.8446 26.1482,31.0946 C25.8122,30.4936 25.2542,30.0866 24.4692,29.8796 C23.2302,29.5386 21.6812,29.5716 20.7052,32.9016 L17.0562,45.2986 C17.0562,45.2986 9.6222,31.2566 9.6172,31.2536 C9.1482,30.3146 7.7752,29.6466 6.3742,30.2016 C4.5472,30.8926 3.9372,32.5386 4.6672,34.6526 C4.6672,34.6526 13.7092,53.0516 13.7302,53.1056 C13.7302,53.1056 13.9742,53.7586 13.9742,53.8656 C13.9742,53.8656 14.0582,54.3676 14.0582,54.3826 C14.0392,55.0916 13.8032,55.6856 13.3792,56.0876 C12.9602,56.4766 12.3812,56.6836 11.7072,56.6536 C11.7072,56.6536 10.2972,56.6246 10.1862,56.6246 C8.7392,56.8016 7.8282,57.6326 7.6812,58.9206 C7.5802,59.7456 7.8462,60.4716 8.4512,61.0276 Z M50.0232,38.6229 C49.7132,35.4669 48.4962,33.0019 46.4962,31.4919 C44.3692,29.8789 41.3592,29.3619 37.7932,29.9989 C33.3232,30.7719 30.6402,33.9699 30.0262,39.2479 C29.2692,45.5599 30.3062,50.3179 33.0382,53.0059 C35.0982,55.0429 38.1422,55.8499 41.8492,55.3509 C47.1312,54.6079 49.5062,51.7049 49.5062,49.8749 C49.5062,48.5259 48.6892,47.4639 47.4922,47.3029 C46.8062,47.1639 46.2282,47.3029 44.9472,48.4469 C43.1022,50.0549 40.9642,50.7019 39.0672,50.2229 C37.6232,49.8549 36.4962,48.8589 35.9862,47.4949 C35.9862,47.4949 35.7582,46.5909 35.7732,46.6939 C35.6182,45.8799 35.5472,45.0759 36.0482,44.7459 L36.1822,44.6539 L47.7852,44.6539 C48.8572,44.6539 49.3982,44.5179 49.7132,44.1769 C50.3482,43.4679 50.3012,41.4489 50.0232,38.6229 Z M44.0762,40.3099 L34.3942,40.3099 C34.1322,40.1209 34.0032,39.7949 34.2002,38.8329 C34.3262,38.3239 34.4562,37.8709 34.8432,37.2309 C34.9652,37.0409 35.0982,36.8439 35.2222,36.6469 C35.9312,35.7539 36.8912,35.1779 37.9822,34.9219 C41.3852,34.0929 43.7562,35.8199 44.1442,38.7709 C44.3272,40.0569 44.2072,40.3099 44.0762,40.3099 Z M94.967,50.6506 C95.843,50.6506 96.578,51.3366 96.578,52.2376 C96.578,53.1566 95.843,53.8446 94.967,53.8446 C94.094,53.8446 93.359,53.1566 93.359,52.2556 C93.359,51.3366 94.094,50.6506 94.967,50.6506 Z M94.371,51.3316 L95.051,51.3316 C95.492,51.3316 95.701,51.4956 95.701,51.8666 C95.701,52.1976 95.488,52.3376 95.212,52.3656 L95.744,53.1846 L95.467,53.1846 L94.963,52.3886 L94.629,52.3886 L94.629,53.1846 L94.371,53.1846 L94.371,51.3316 Z M94.629,52.1556 L94.948,52.1556 C95.205,52.1556 95.445,52.1436 95.445,51.8516 C95.445,51.5946 95.227,51.5646 95.027,51.5646 L94.629,51.5646 L94.629,52.1556 Z M60.545,21.926 C59.623,21.552 58.588,21.655 57.681,22.195 C56.807,22.712 56.441,23.501 56.441,24.923 L56.441,52.593 C56.441,52.593 56.595,53.581 56.608,53.625 C56.807,54.314 57.317,54.9 58.023,55.225 C58.806,55.588 59.717,55.58 60.523,55.199 C61.535,54.767 62.134,53.756 62.134,52.501 L62.134,24.783 C62.134,24.783 61.955,23.444 61.955,23.419 C61.793,22.774 61.264,22.218 60.545,21.926 Z M82.7255,29.715 C80.1585,29.194 77.9625,29.628 75.8505,31.062 C75.8505,31.062 75.6175,31.254 75.5205,31.307 L75.3365,31.405 L74.7545,31.66 L74.5935,31.013 L74.4555,30.78 L74.4065,30.634 L74.3885,30.591 C74.3885,30.591 74.2505,30.402 74.2285,30.373 C73.6235,29.428 71.9755,28.996 70.4875,29.845 C69.7625,30.255 69.3465,30.836 69.3465,32.569 L69.3465,59.725 C69.3465,61.212 69.8125,62.139 70.8325,62.625 C71.6925,63.06 72.6625,63.093 73.4935,62.735 C74.2015,62.428 74.7185,61.878 74.9125,61.212 L75.0835,60.05 L75.0835,55.35 L75.0355,54.593 L75.0535,54.37 L75.0835,54.263 L75.3635,53.367 L76.2145,53.935 C76.2145,53.935 76.4275,54.073 76.5175,54.17 L76.7715,54.34 C76.7755,54.34 77.0685,54.514 77.0685,54.514 C77.0745,54.514 77.3395,54.644 77.3395,54.644 C79.6235,55.719 82.6725,55.596 85.1255,54.327 C88.2115,52.717 89.7385,49.855 90.0915,45.051 C90.8305,35.452 88.6235,30.862 82.7255,29.715 Z M82.4415,50.031 C78.6125,50.031 78.0005,46.63 77.8785,44.065 C77.8735,44.057 77.8285,42.559 77.8285,42.559 C77.8285,42.559 77.8735,41.446 77.8735,41.403 C78.1195,36.962 79.0395,35.211 81.3815,34.722 C82.9575,34.358 84.1585,34.535 85.0605,35.26 C86.4165,36.353 87.0145,38.664 86.9615,42.519 C86.9185,47.032 86.1375,50.031 82.4415,50.031 Z" id="Combined-Shape"></path>
            </g>
        </g>
    </g>
</svg>