<?xml version="1.0" encoding="utf-8"?>
<!-- Generator: Adobe Illustrator 20.0.0, SVG Export Plug-In . SVG Version: 6.00 Build 0)  -->
<svg version="1.1" id="Layer_1" xmlns="http://www.w3.org/2000/svg" xmlns:xlink="http://www.w3.org/1999/xlink" x="0px" y="0px"
	 viewBox="0 0 48 48" style="enable-background:new 0 0 48 48;" xml:space="preserve">
<style type="text/css">
	.st0{fill:none;}
	.st1{fill:#FFFFFF;}
</style>
<g>
	<rect y="0" class="st0" width="48" height="48"/>
	<polygon class="st1" points="27.4,10.5 27.4,9.5 21.1,9.5 21.1,10.5 	"/>
	<polygon class="st1" points="23.8,24 24.2,26.1 24.7,24 27.9,10.1 26.9,9.9 23.8,23.8 24.7,23.8 21.6,9.9 20.6,10.1 	"/>
	<path class="st1" d="M13.7,13.4l-0.4,0.2l0.2,0.4l3.6,9.6c0.1,0.4,0.2,0.8,0.1,1.1L14.7,37l-0.1,0.5l0.5,0.1l4.6,0.9
		c1.4,0.3,2.8-0.5,3.4-1.8l1.5-3.5l0-0.2l0-9.2l0-0.2l-0.1-0.1l-6.9-8.7l-0.2,0.8l2.1-1l0.5-0.3l-0.4-0.5l-1.6-2.2l-0.8,0.6l1.6,2.2
		l0.2-0.7l-2.1,1L16.6,15l0.4,0.5l6.9,8.7l-0.1-0.3l0,9.1l0-0.2l-1.5,3.5c-0.4,0.9-1.3,1.4-2.3,1.2l-4.6-0.9l0.4,0.6L18.2,25
		c0.1-0.6,0.1-1.1-0.1-1.7l-3.6-9.6l-0.2,0.6l7.2-3.9l-0.5-0.9L13.7,13.4z"/>
	<path class="st1" d="M34.3,14.3l-0.2-0.6l-3.7,9.6c-0.2,0.5-0.2,1.1-0.1,1.7l2.4,12.2l0.4-0.6l-4.6,0.9c-1,0.2-1.9-0.3-2.3-1.2
		l-1.5-3.5l0,0.2l0-3.7l0-5.5l-0.1,0.3l6.8-8.7l0.4-0.5l-0.6-0.3l-2.1-1l0.2,0.7l1.6-2.2l-0.8-0.6l-1.6,2.2l-0.4,0.5l0.5,0.3l2.1,1
		l-0.2-0.8l-6.8,8.7l-0.1,0.1l0,0.2l0,5.5l0,3.7l0,0.2l1.5,3.5c0.6,1.3,2,2,3.4,1.8l4.6-0.9l0.5-0.1L33.7,37l-2.4-12.2
		c-0.1-0.4,0-0.8,0.1-1.1L35,14l0.2-0.4l-0.4-0.2l-7.2-3.9l-0.5,0.9L34.3,14.3z"/>
	<polygon class="st1" points="13,34.5 13,35 13.5,35 15.5,35 15.5,34 13.5,34 14,34.5 14,13.9 13,13.9 	"/>
	<polygon class="st1" points="34.1,34.5 34.6,34 32.7,34 32.7,35 34.6,35 35.1,35 35.1,34.5 35.1,13.9 34.1,13.9 	"/>
	<g transform="rotate(-180 20.805 7.338)">
		<path class="st1" d="M3,1.1H0.5C0.2,1.1,0,0.9,0,0.6s0.2-0.5,0.5-0.5H3c0.3,0,0.5,0.2,0.5,0.5S3.3,1.1,3,1.1 M21,10.2
			c-0.1,0-0.3,0-0.4-0.1l-1.8-1.8c-0.2-0.2-0.2-0.5,0-0.7c0.2-0.2,0.5-0.2,0.7,0l1.8,1.8c0.2,0.2,0.2,0.5,0,0.7
			C21.2,10.2,21.1,10.2,21,10.2 M4,10.2c-0.1,0-0.3,0-0.4-0.1c-0.2-0.2-0.2-0.5,0-0.7l1.8-1.8c0.2-0.2,0.5-0.2,0.7,0
			c0.2,0.2,0.2,0.5,0,0.7l-1.8,1.8C4.3,10.2,4.2,10.2,4,10.2 M11.5,13.7c-0.3,0-0.5-0.2-0.5-0.5v-2.5c0-0.3,0.2-0.5,0.5-0.5
			s0.5,0.2,0.5,0.5v2.5C12,13.5,11.8,13.7,11.5,13.7"/>
	</g>
</g>
</svg>
