<svg xmlns="http://www.w3.org/2000/svg" width="120" height="14" viewBox="0 0 120 14">
  <g fill="#FFFFFF" fill-rule="evenodd">
    <path d="M2.595 8.79136364C2.595 9.25431818 2.69181818 9.64840909 2.88613636 9.97568182 3.07909091 10.3015909 3.34909091 10.5695455 3.69545455 10.7788636 4.04181818 10.9868182 4.43931818 11.1388636 4.89 11.2356818 5.33931818 11.3304545 5.82681818 11.3795455 6.35318182 11.3795455 6.92045455 11.3795455 7.40454545 11.325 7.80613636 11.2179545 8.20772727 11.1109091 8.53295455 10.9725 8.78181818 10.8047727 9.03136364 10.6343182 9.21136364 10.4406818 9.32181818 10.2197727 9.43227273 10.0002273 9.48818182 9.77795455 9.48818182 9.55159091 9.48818182 9.09068182 9.36 8.74977273 9.10363636 8.52886364 8.84795455 8.30931818 8.56704545 8.15386364 8.26295455 8.06454545 7.73659091 7.90636364 7.12431818 7.75704545 6.42613636 7.61590909 5.72659091 7.47477273 4.86477273 7.29204545 3.84068182 7.06636364 3.20386364 6.93136364 2.67477273 6.75272727 2.25272727 6.53386364 1.83068182 6.31363636 1.49522727 6.06818182 1.24568182 5.7975.996818182 5.5275.820227273 5.23909091.716590909 4.93431818.612272727 4.63090909.560454545 4.32.560454545 4.00568182.560454545 3.39545455.716590909 2.86772727 1.0275 2.42318182 1.33909091 1.97795455 1.75090909 1.60909091 2.26295455 1.31454545 2.775 1.02272727 3.35659091.805909091 4.00704545.664090909 4.6575.522954545 5.31477273.452727273 5.97886364.452727273 6.75409091.452727273 7.48431818.534545455 8.17022727.698181818 8.85477273.861818182 9.45681818 1.10659091 9.97636364 1.43318182 10.4952273 1.76113636 10.9063636 2.16477273 11.2111364 2.64340909 11.5159091 3.12340909 11.6679545 3.67909091 11.6679545 4.30840909L9.07295455 4.30840909C9.00340909 3.53113636 8.67818182 2.98090909 8.09659091 2.65977273 7.51568182 2.33863636 6.77522727 2.17772727 5.87590909 2.17772727 5.57113636 2.17772727 5.25954545 2.20295455 4.94113636 2.25477273 4.62272727 2.30454545 4.33227273 2.38977273 4.06909091 2.50704545 3.80659091 2.62636364 3.58772727 2.78727273 3.41522727 2.99045455 3.24204545 3.19295455 3.15545455 3.44659091 3.15545455 3.75204545 3.15545455 4.18022727 3.31840909 4.515 3.64363636 4.75704545 3.96886364 5.00045455 4.39431818 5.18318182 4.92 5.30727273 4.97590909 5.31818182 5.19340909 5.36590909 5.57454545 5.45113636 5.955 5.53568182 6.38045455 5.62840909 6.85159091 5.73 7.32204545 5.83090909 7.78159091 5.93045455 8.23159091 6.02522727 8.68159091 6.12068182 9.00340909 6.19295455 9.19704545 6.23727273 9.68181818 6.36136364 10.1038636 6.53045455 10.4638636 6.74386364 10.8238636 6.96 11.1245455 7.20477273 11.3672727 7.48022727 11.6093182 7.75704545 11.7893182 8.05227273 11.9065909 8.36863636 12.0245455 8.68431818 12.0831818 9 12.0831818 9.31568182 12.0831818 9.99272727 11.9134091 10.5695455 11.5745455 11.0495455 11.235 11.5281818 10.7890909 11.9195455 10.2354545 12.2243182 9.68181818 12.5290909 9.05181818 12.7506818 8.34613636 12.8925 7.64045455 13.0329545 6.92045455 13.1038636 6.18681818 13.1038636 5.34272727 13.1038636 4.54704545 13.0193182 3.79977273 12.8502273 3.05181818 12.6811364 2.40136364 12.4220455 1.84772727 12.0722727 1.29409091 11.7231818.850909091 11.2745455.518863636 10.7270455.186818182 10.1809091.0136363636 9.53522727 0 8.79136364L2.595 8.79136364M46.7638636 8.79136364C46.7638636 9.25431818 46.8606818 9.64840909 47.055 9.97568182 47.2479545 10.3015909 47.5179545 10.5695455 47.8643182 10.7788636 48.2106818 10.9868182 48.6081818 11.1388636 49.0588636 11.2356818 49.5081818 11.3304545 49.9956818 11.3795455 50.5220455 11.3795455 51.0893182 11.3795455 51.5734091 11.325 51.975 11.2179545 52.3765909 11.1109091 52.7018182 10.9725 52.9513636 10.8047727 53.2002273 10.6343182 53.3802273 10.4406818 53.4906818 10.2197727 53.6011364 10.0002273 53.6570455 9.77795455 53.6570455 9.55159091 53.6570455 9.09068182 53.5288636 8.74977273 53.2725 8.52886364 53.0168182 8.30931818 52.7359091 8.15386364 52.4318182 8.06454545 51.9054545 7.90636364 51.2931818 7.75704545 50.595 7.61590909 49.8954545 7.47477273 49.0336364 7.29204545 48.0095455 7.06636364 47.3727273 6.93136364 46.8436364 6.75272727 46.4215909 6.53386364 45.9995455 6.31363636 45.6640909 6.06818182 45.4145455 5.7975 45.1656818 5.5275 44.9890909 5.23909091 44.8854545 4.93431818 44.7811364 4.63090909 44.7293182 4.32 44.7293182 4.00568182 44.7293182 3.39545455 44.8854545 2.86772727 45.1963636 2.42318182 45.5079545 1.97795455 45.9197727 1.60909091 46.4318182 1.31454545 46.9438636 1.02272727 47.5254545.805909091 48.1759091.664090909 48.8263636.522954545 49.4836364.452727273 50.1477273.452727273 50.9229545.452727273 51.6531818.534545455 52.3384091.698181818 53.0236364.861818182 53.6256818 1.10659091 54.1452273 1.43318182 54.6634091 1.76113636 55.0752273 2.16477273 55.38 2.64340909 55.6847727 3.12340909 55.8368182 3.67909091 55.8368182 4.30840909L53.2418182 4.30840909C53.1722727 3.53113636 52.8470455 2.98090909 52.2654545 2.65977273 51.6845455 2.33863636 50.9434091 2.17772727 50.0447727 2.17772727 49.74 2.17772727 49.4284091 2.20295455 49.11 2.25477273 48.7915909 2.30454545 48.5004545 2.38977273 48.2379545 2.50704545 47.9754545 2.62636364 47.7565909 2.78727273 47.5840909 2.99045455 47.4109091 3.19295455 47.3243182 3.44659091 47.3243182 3.75204545 47.3243182 4.18022727 47.4872727 4.515 47.8125 4.75704545 48.1377273 5.00045455 48.5631818 5.18318182 49.0888636 5.30727273 49.1447727 5.31818182 49.3622727 5.36590909 49.7434091 5.45113636 50.1238636 5.53568182 50.5493182 5.62840909 51.0204545 5.73 51.4909091 5.83090909 51.9504545 5.93045455 52.4004545 6.02522727 52.8504545 6.12068182 53.1722727 6.19295455 53.3659091 6.23727273 53.8506818 6.36136364 54.2727273 6.53045455 54.6327273 6.74386364 54.9927273 6.96 55.2934091 7.20477273 55.5361364 7.48022727 55.7781818 7.75704545 55.9581818 8.05227273 56.0754545 8.36863636 56.1927273 8.68431818 56.2520455 9 56.2520455 9.31568182 56.2520455 9.99272727 56.0822727 10.5695455 55.7434091 11.0495455 55.4038636 11.5281818 54.9579545 11.9195455 54.4043182 12.2243182 53.8506818 12.5290909 53.2206818 12.7506818 52.515 12.8925 51.8093182 13.0329545 51.0893182 13.1038636 50.3556818 13.1038636 49.5115909 13.1038636 48.7159091 13.0193182 47.9686364 12.8502273 47.2206818 12.6811364 46.5702273 12.4220455 46.0165909 12.0722727 45.4629545 11.7231818 45.0197727 11.2745455 44.6877273 10.7270455 44.3556818 10.1809091 44.1825 9.53522727 44.1688636 8.79136364L46.7638636 8.79136364M13.7079545.740454545L16.1775.740454545 16.1775 7.77681818C16.1775 8.18181818 16.2 8.59431818 16.2463636 9.01090909 16.2920455 9.42818182 16.4243182 9.80318182 16.6411364 10.1359091 16.8586364 10.4686364 17.1872727 10.7420455 17.6290909 10.9561364 18.0702273 11.1695455 18.6920455 11.2765909 19.4959091 11.2765909 20.2990909 11.2765909 20.9209091 11.1695455 21.3627273 10.9561364 21.8038636 10.7420455 22.1325 10.4686364 22.35 10.1359091 22.5675 9.80318182 22.6990909 9.42818182 22.7454545 9.01090909 22.7911364 8.59431818 22.8143182 8.18181818 22.8143182 7.77681818L22.8143182.740454545 25.2838636.740454545 25.2838636 8.47022727C25.2838636 9.2475 25.1454545 9.92454545 24.8686364 10.5 24.5918182 11.0740909 24.2004545 11.5568182 23.6931818 11.9454545 23.1865909 12.3347727 22.5777273 12.6252273 21.8665909 12.8168182 21.1547727 13.0090909 20.3652273 13.1038636 19.4959091 13.1038636 18.6265909 13.1038636 17.8363636 13.0090909 17.1252273 12.8168182 16.4140909 12.6252273 15.8045455 12.3347727 15.2979545 11.9454545 14.7906818 11.5568182 14.3993182 11.0740909 14.1225 10.5 13.8463636 9.92454545 13.7079545 9.2475 13.7079545 8.47022727L13.7079545.740454545"/>
    <polygon points="28.128 .74 30.598 .74 30.598 12.817 28.128 12.817"/>
    <polyline points="32.751 1 44.169 1 44.169 2.827 39.685 2.827 39.685 13.076 37.216 13.076 37.216 2.827 32.751 2.827 32.751 1"/>
    <path d="M58.47.740454545L60.9388636.740454545 60.9388636 7.77681818C60.9388636 8.18181818 60.9620455 8.59431818 61.0084091 9.01090909 61.0540909 9.42818182 61.1863636 9.80318182 61.4031818 10.1359091 61.6206818 10.4686364 61.9493182 10.7420455 62.3911364 10.9561364 62.8322727 11.1695455 63.4540909 11.2765909 64.2579545 11.2765909 65.0604545 11.2765909 65.6829545 11.1695455 66.1247727 10.9561364 66.5652273 10.7420455 66.8945455 10.4686364 67.1120455 10.1359091 67.3295455 9.80318182 67.4611364 9.42818182 67.5075 9.01090909 67.5531818 8.59431818 67.5763636 8.18181818 67.5763636 7.77681818L67.5763636.740454545 70.0459091.740454545 70.0459091 8.47022727C70.0459091 9.2475 69.9075 9.92454545 69.6306818 10.5 69.3538636 11.0740909 68.9625 11.5568182 68.4552273 11.9454545 67.9486364 12.3347727 67.3397727 12.6252273 66.6279545 12.8168182 65.9175 13.0090909 65.1272727 13.1038636 64.2579545 13.1038636 63.3886364 13.1038636 62.5984091 13.0090909 61.8872727 12.8168182 61.1768182 12.6252273 60.5672727 12.3347727 60.06 11.9454545 59.5527273 11.5568182 59.1613636 11.0740909 58.8845455 10.5 58.6084091 9.92454545 58.47 9.2475 58.47 8.47022727L58.47.740454545M73.3840909.740454545L79.6056818.740454545C80.6065909.740454545 81.4234091.865227273 82.0561364 1.11272727 82.6875 1.36022727 83.175 1.67045455 83.5172727 2.04340909 83.8595455 2.41568182 84.0934091 2.82136364 84.2188636 3.26045455 84.3436364 3.70022727 84.4063636 4.10590909 84.4063636 4.47818182 84.4063636 4.85113636 84.3436364 5.25340909 84.2188636 5.68704545 84.0934091 6.12136364 83.8595455 6.52431818 83.5172727 6.89659091 83.175 7.26886364 82.6875 7.57636364 82.0561364 7.81909091 81.4234091 8.06181818 80.6065909 8.18181818 79.6056818 8.18181818L75.8529545 8.18181818 75.8529545 12.8168182 73.3840909 12.8168182 73.3840909.740454545 73.3840909.740454545zM75.8529545 6.4575L79.4679545 6.4575C79.7447727 6.4575 80.0277273 6.42272727 80.3175 6.35590909 80.6065909 6.28840909 80.8731818 6.17795455 81.1172727 6.02590909 81.3613636 5.87386364 81.5584091 5.67068182 81.7097727 5.41704545 81.8611364 5.16340909 81.9375 4.845 81.9375 4.46113636 81.9375 4.06704545 81.8706818 3.73977273 81.7397727 3.48068182 81.6081818 3.22159091 81.4302273 3.015 81.2059091 2.86295455 80.9822727 2.71090909 80.7252273 2.60659091 80.4354545 2.55 80.1463636 2.49409091 79.8368182 2.46545455 79.5075 2.46545455L75.8529545 2.46545455 75.8529545 6.4575 75.8529545 6.4575zM86.5595455.740454545L92.7825.740454545C93.7827273.740454545 94.5988636.865227273 95.2322727 1.11272727 95.8636364 1.36022727 96.3511364 1.67045455 96.6934091 2.04340909 97.0356818 2.41568182 97.2688636 2.82136364 97.395 3.26045455 97.5197727 3.70022727 97.5825 4.10590909 97.5825 4.47818182 97.5825 4.85113636 97.5197727 5.25340909 97.395 5.68704545 97.2688636 6.12136364 97.0356818 6.52431818 96.6934091 6.89659091 96.3511364 7.26886364 95.8636364 7.57636364 95.2322727 7.81909091 94.5988636 8.06181818 93.7827273 8.18181818 92.7825 8.18181818L89.0290909 8.18181818 89.0290909 12.8168182 86.5595455 12.8168182 86.5595455.740454545 86.5595455.740454545zM89.0290909 6.4575L92.6440909 6.4575C92.9209091 6.4575 93.2038636 6.42272727 93.4936364 6.35590909 93.7827273 6.28840909 94.0493182 6.17795455 94.2927273 6.02590909 94.5368182 5.87386364 94.7345455 5.67068182 94.8852273 5.41704545 95.0372727 5.16340909 95.1136364 4.845 95.1136364 4.46113636 95.1136364 4.06704545 95.0468182 3.73977273 94.9159091 3.48068182 94.7836364 3.22159091 94.6063636 3.015 94.3820455 2.86295455 94.1584091 2.71090909 93.9013636 2.60659091 93.6115909 2.55 93.3225 2.49409091 93.0129545 2.46545455 92.6836364 2.46545455L89.0290909 2.46545455 89.0290909 6.4575 89.0290909 6.4575z"/>
    <polyline points="99.736 .74 102.205 .74 102.205 10.99 109.376 10.99 109.376 12.817 99.736 12.817 99.736 .74"/>
    <polyline points="112.062 8.081 106.768 .74 109.632 .74 113.366 6.153 117.04 .74 119.805 .74 114.531 8.081 114.531 12.817 112.062 12.817 112.062 8.081"/>
  </g>
</svg>
