<?xml version="1.0" encoding="utf-8"?>
<!-- Generator: Adobe Illustrator 20.0.0, SVG Export Plug-In . SVG Version: 6.00 Build 0)  -->
<svg version="1.1" id="Layer_1" xmlns="http://www.w3.org/2000/svg" xmlns:xlink="http://www.w3.org/1999/xlink" x="0px" y="0px"
	 viewBox="0 0 48 48" style="enable-background:new 0 0 48 48;" xml:space="preserve">
<style type="text/css">
	.st0{fill:#FFFFFF;}
	.st1{fill:none;}
</style>
<g>
	<path class="st0" d="M24,17.9c-1.2,0-2.1,0.9-2.1,2.1s0.9,2.1,2.1,2.1s2.1-0.9,2.1-2.1S25.2,17.9,24,17.9z M24,23c-1.7,0-3-1.3-3-3
		s1.3-3,3-3s3,1.3,3,3S25.7,23,24,23z"/>
	<path class="st0" d="M23.5,34.9c0.3-0.4,0.6-0.9,0.9-1.4c0.9-1.4,1.9-2.9,2.7-4.4c0.5-0.9,1-1.7,1.4-2.5c1.6-3,2.5-5.4,2.5-6.7
		c0-3.9-3.1-7-7-7s-7,3.1-7,7c0,1.3,0.9,3.7,2.5,6.7c0.4,0.8,0.9,1.6,1.4,2.5c0.9,1.5,1.8,3,2.7,4.4c0.3,0.5,0.6,1,0.9,1.4
		c0,0.1,0.1,0.1,0.1,0.2c-0.1,0.1-0.2,0.2-0.2,0.3h-0.8c-0.1-0.1-0.1-0.2-0.2-0.3C23.4,35,23.5,35,23.5,34.9z M24,36
		c0,0-8-11.6-8-16s3.6-8,8-8s8,3.6,8,8S24,36,24,36z"/>
	<path class="st0" d="M27.5,36c0.3,0,0.5-0.2,0.5-0.5S27.8,35,27.5,35h-6.9c-0.3,0-0.5,0.2-0.5,0.5s0.2,0.5,0.5,0.5H27.5z"/>
	<rect y="0" class="st1" width="48" height="48"/>
</g>
</svg>
